<?xml version="1.0" encoding="utf-8"?>
<!-- Generator: Adobe Illustrator 24.1.0, SVG Export Plug-In . SVG Version: 6.00 Build 0)  -->
<svg version="1.1" id="Capa_1" xmlns="http://www.w3.org/2000/svg" xmlns:xlink="http://www.w3.org/1999/xlink" x="0px" y="0px"
	 viewBox="0 0 48 48" style="enable-background:new 0 0 48 48;" xml:space="preserve">
<style type="text/css">
	.st0{fill:#E82E31;}
	.st1{fill:#FFFFFF;}
</style>
<g>
	<path class="st0" d="M0,0h48v48H0V0z"/>
	<g>
		<path class="st1" d="M5.5,14.9h5.7l3.4,14.7L18,14.9h5.6v18.7H20V18L19.9,18l-3.5,15.6h-3.8L9.2,18L9.1,18v15.6H5.5V14.9z"/>
		<path class="st1" d="M26.5,23c0.5-1.1,1.2-2,2.2-2.6c1-0.7,2.3-1,3.8-1c1.6,0,2.9,0.3,3.8,1c1,0.7,1.6,1.6,2.1,2.8
			c0.4,1.2,0.6,2.4,0.6,3.8v0.6h-9.5c0,1.1,0.3,1.9,0.9,2.5c0.6,0.6,1.4,0.9,2.4,0.9c0.5,0,1-0.1,1.5-0.4c0.5-0.3,0.7-0.6,0.9-1.1
			h3.7c-0.3,1-0.7,1.8-1.3,2.4c-0.6,0.7-1.3,1.2-2.1,1.5c-0.8,0.3-1.7,0.5-2.7,0.5c-4.6,0-6.9-2.5-6.9-7.6
			C25.8,25.2,26,24.1,26.5,23z M35.2,25.3c-0.1-0.9-0.4-1.6-0.9-2.2c-0.5-0.5-1.2-0.8-1.9-0.8c-1.6,0-2.6,1-2.8,3H35.2z"/>
		<path class="st1" d="M40.9,29.8h3.9v3.8h-3.9V29.8z"/>
	</g>
</g>
</svg>
